<?xml version="1.0" standalone="no"?>
<!DOCTYPE svg PUBLIC "-//W3C//DTD SVG 20010904//EN"
 "http://www.w3.org/TR/2001/REC-SVG-20010904/DTD/svg10.dtd">
<svg version="1.0" xmlns="http://www.w3.org/2000/svg"
 width="327.000000pt" height="319.000000pt" viewBox="0 0 327.000000 319.000000"
 preserveAspectRatio="xMidYMid meet">

<g transform="translate(0.000000,319.000000) scale(0.100000,-0.100000)"
fill="#000000" stroke="none">
<path d="M957 2953 l-67 -68 242 -242 243 -243 -240 -240 -240 -240 68 -67 67
-68 308 308 307 307 -310 310 -310 310 -68 -67z"/>
<path d="M1700 1750 l0 -110 425 0 425 0 0 110 0 110 -425 0 -425 0 0 -110z"/>
<path d="M890 1375 c0 -13 99 -15 830 -15 731 0 830 2 830 15 0 13 -99 15
-830 15 -731 0 -830 -2 -830 -15z"/>
<path d="M2020 740 c0 -287 2 -330 15 -330 13 0 15 43 15 330 0 287 -2 330
-15 330 -13 0 -15 -43 -15 -330z"/>
<path d="M602 1033 c-34 -64 -263 -615 -259 -620 16 -15 37 12 67 86 l34 81
181 0 181 0 35 -82 c26 -63 40 -84 56 -86 18 -3 3 37 -116 315 -136 316 -156
350 -179 306z m109 -233 l77 -180 -163 0 -163 0 70 163 c38 89 74 173 79 186
5 13 12 21 16 17 4 -3 41 -87 84 -186z"/>
<path d="M1040 731 l0 -321 162 0 c141 0 167 3 203 20 55 27 85 80 85 151 0
67 -25 110 -77 138 -21 11 -33 20 -26 21 7 0 28 16 47 35 71 71 56 191 -32
242 -44 26 -54 28 -204 31 l-158 4 0 -321z m341 256 c58 -39 73 -94 44 -163
-23 -57 -74 -74 -222 -74 l-123 0 0 130 0 130 134 0 c122 0 136 -2 167 -23z
m35 -319 c30 -33 34 -44 34 -92 0 -40 -6 -60 -22 -81 -35 -45 -74 -55 -218
-55 l-130 0 0 136 0 135 151 -3 151 -3 34 -37z"/>
<path d="M2331 860 c-97 -24 -164 -145 -146 -263 10 -64 50 -139 89 -165 50
-34 130 -40 188 -14 83 36 122 116 116 236 -3 60 -9 82 -33 121 -45 72 -130
106 -214 85z m150 -66 c44 -41 59 -83 59 -166 0 -125 -57 -190 -162 -190 -58
1 -89 19 -125 71 -28 41 -39 127 -24 188 24 95 77 136 169 130 41 -3 59 -10
83 -33z"/>
<path d="M2855 865 c-5 -2 -22 -6 -37 -9 -91 -20 -155 -154 -129 -269 28 -120
116 -181 237 -162 35 5 55 16 86 47 l41 41 -5 -89 c-5 -105 -22 -144 -74 -169
-47 -22 -134 -17 -192 11 -35 18 -42 19 -47 6 -12 -31 70 -63 165 -63 82 -1
129 23 158 81 21 43 22 54 22 307 0 227 -2 263 -15 263 -11 0 -15 -12 -15 -42
l-1 -43 -22 26 c-12 15 -33 33 -47 42 -25 15 -105 30 -125 22z m122 -61 c44
-33 67 -90 67 -164 0 -77 -21 -122 -75 -158 -29 -20 -43 -23 -98 -20 -58 4
-66 7 -97 40 -87 95 -64 266 41 315 41 19 129 12 162 -13z"/>
<path d="M1630 645 c0 -12 20 -15 120 -15 100 0 120 3 120 15 0 13 -20 15
-120 15 -100 0 -120 -2 -120 -15z"/>
<path d="M890 195 c0 -13 99 -15 830 -15 731 0 830 2 830 15 0 13 -99 15 -830
15 -731 0 -830 -2 -830 -15z"/>
</g>
</svg>
